<?xml version="1.0" standalone="no"?>
<!DOCTYPE svg PUBLIC "-//W3C//DTD SVG 20010904//EN"
 "http://www.w3.org/TR/2001/REC-SVG-20010904/DTD/svg10.dtd">
<svg version="1.0" xmlns="http://www.w3.org/2000/svg"
 width="900.000000pt" height="768.000000pt" viewBox="0 0 900.000000 768.000000"
 preserveAspectRatio="xMidYMid meet">

<g transform="translate(0.000000,768.000000) scale(0.100000,-0.100000)"
fill="#888888" stroke="none">
<path d="M2852 7106 c-190 -47 -365 -224 -416 -422 -12 -47 -16 -114 -16 -283
l0 -221 -263 0 c-286 0 -336 -7 -430 -57 -59 -33 -149 -127 -182 -194 -58
-114 -55 49 -55 -2559 0 -2623 -4 -2456 57 -2559 62 -107 176 -196 285 -225
58 -16 267 -17 2698 -14 l2635 3 68 32 c84 40 174 124 216 202 66 124 61 -67
61 2563 0 1730 -3 2402 -11 2440 -35 166 -186 320 -350 357 -24 6 -162 11
-306 11 l-263 0 0 229 c0 204 -2 236 -21 297 -53 174 -187 318 -358 383 -61
23 -81 25 -276 29 -240 4 -297 -3 -402 -54 -139 -68 -251 -200 -300 -351 -23
-71 -26 -98 -31 -305 l-5 -228 -691 0 -691 0 -1 223 c-1 173 -4 236 -18 286
-51 196 -223 365 -421 416 -76 19 -433 20 -513 1z m444 -484 c12 -9 27 -27 33
-39 8 -15 11 -190 11 -587 l0 -566 -29 -32 -29 -33 -171 0 -171 0 -27 28 -28
27 -3 568 c-3 512 -1 570 13 598 10 18 27 37 38 42 13 6 93 11 182 11 137 0
163 -2 181 -17z m2768 7 c56 -26 56 -28 56 -627 0 -334 -4 -561 -10 -576 -5
-14 -24 -35 -42 -46 -30 -19 -47 -20 -191 -18 l-159 3 -29 33 -29 32 0 568 c1
607 0 600 51 628 31 17 316 19 353 3z m984 -3726 l2 -1873 -2550 0 -2550 0 0
1875 0 1875 2548 -2 2547 -3 3 -1872z"/>
</g>
</svg>
